<svg xmlns="http://www.w3.org/2000/svg" width="639.686" height="162.843" viewBox="0 0 639.686 162.843"><defs><style>.a{fill:#fff;}</style></defs><path class="a" d="M601.951,162.843a3.436,3.436,0,0,0-.887-.3,18.048,18.048,0,0,1-10.659-4.25c-.316-.255-.6-.549-.961-.882,1.2-1.646,2.373-3.267,3.579-4.859a.7.7,0,0,1,.667-.069,41.5,41.5,0,0,0,4.6,2.73c2.677,1.13,5.484,1.621,8.172-.091a3.914,3.914,0,0,0,.369-6.343,31.37,31.37,0,0,0-5.1-2.859c-2.7-1.273-5.5-2.323-7.855-4.228a9.141,9.141,0,0,1-3.609-7.988,10.221,10.221,0,0,1,2.381-6.007,11.728,11.728,0,0,1,6.069-3.909,17.779,17.779,0,0,1,8.31-.162,15.531,15.531,0,0,1,7.027,3.243,4.992,4.992,0,0,1,.481.549c-.882,1.617-1.824,3.288-2.7,4.991-.283.549-.441.5-.9.164a12.618,12.618,0,0,0-8.677-2.839A5.242,5.242,0,0,0,598,132.083c-1.336,2.146-.694,4.038,1.379,5.328a48.711,48.711,0,0,0,5.908,2.877c2.482,1.109,5.014,2.145,7.019,4.036a8.677,8.677,0,0,1,2.659,4.533,10.7,10.7,0,0,1-2.521,10.011,10.5,10.5,0,0,1-5.887,3.306c-.84.163-1.7.232-2.542.373-.14.023-.256.194-.383.3Z"/><path class="a" d="M293.753,92.205c.288-.275.425-.521.606-.561,1.734-.374,3.492-.653,5.211-1.086a14.9,14.9,0,0,0,3.188-1.2,1.819,1.819,0,0,0,.77-1.326c.089-1.759.067-3.526.007-5.287a1.22,1.22,0,0,0-.61-.933,30.819,30.819,0,0,0-3.288-.782,65.375,65.375,0,0,0-11.518-.732c-3.58-.068-7.162-.3-10.738-.227-3.291.066-6.588.328-9.859.707a72.807,72.807,0,0,0-11.5,2.579,35.24,35.24,0,0,1-6.453,1.208,58.036,58.036,0,0,1-8.357.224,51.144,51.144,0,0,1-12.749-2.059c-1.727-.548-3.428-1.179-5.133-1.793a18.192,18.192,0,0,0-8.578-.731c-1.077.135-2.159.257-3.218.484-1.8.386-3.587.853-5.381,1.282-1.515.362-3.016.813-4.55,1.057-2.893.46-5.8.886-8.711,1.164-2.612.249-5.244.3-7.868.4-3.543.135-7.088.323-10.632.33q-19.118.034-38.237-.055a70.062,70.062,0,0,1-7.859-.378c-3.427-.4-6.828-1.044-10.231-1.637-1.885-.329-3.752-.759-5.624-1.16-2.977-.638-5.943-1.325-8.929-1.917-1.258-.249-2.554-.3-3.831-.458a.89.89,0,0,1-.621-.339c.917-.132,1.83-.331,2.752-.382a23.158,23.158,0,0,0,7.4-1.928,37.276,37.276,0,0,1,7.3-2.416,58.673,58.673,0,0,1,9.293-1.007c2.124-.044,4.248-.193,6.37-.163,2.961.043,5.924.165,8.881.338,2.361.138,4.735.276,7.069.636a92.945,92.945,0,0,0,15.976.559c2.358-.044,4.711-.4,7.066-.61a192.373,192.373,0,0,1,21.538-.743c2.593.059,5.195.17,7.769.46a32.952,32.952,0,0,1,9.481,2.574,20.194,20.194,0,0,0,11.182,1.478,41.582,41.582,0,0,0,6.02-1.788c1.818-.562,3.6-1.262,5.456-1.669A51.147,51.147,0,0,1,240.07,73.1a57.414,57.414,0,0,1,7.688.167,40.991,40.991,0,0,1,5.524.773c2.047.421,4.047,1.066,6.084,1.545a57.843,57.843,0,0,0,6.053,1.242c2.126.264,4.288.258,6.435.32a6.514,6.514,0,0,0,1.456-.3c-1.195-2.165-2.291-4.215-3.453-6.227a3.044,3.044,0,0,0-2.463-1.183,12.225,12.225,0,0,0-5.366.546,38.213,38.213,0,0,1-3.891.816c-1.387.263-2.775.53-4.172.73-1.905.274-3.814.551-5.73.7a42.662,42.662,0,0,1-5.277.143c-2.676-.119-5.352-.325-8.012-.634a32.837,32.837,0,0,1-5.125-1.014c-1.8-.508-3.523-1.252-5.286-1.878a16.571,16.571,0,0,0-7.032-1.172,16.23,16.23,0,0,0-6.769,2.141,10.3,10.3,0,0,1-3.053.964c-1.734.367-3.485.686-5.243.908-1.828.231-3.672.373-5.513.461-2.654.127-5.312.247-7.968.227-2.879-.022-5.76-.165-8.635-.34-2.059-.125-4.118-.333-6.163-.607a23.6,23.6,0,0,1-6.082-1.731,15.447,15.447,0,0,0-3.53-.979,28.166,28.166,0,0,0-11.154.378c-1.1.262-2.144.726-3.218,1.083a21.13,21.13,0,0,1-2.886.906,60.1,60.1,0,0,1-7.1,1.041c-3.908.224-7.832.3-11.746.237-3.35-.049-6.713-.229-10.04-.607a46.116,46.116,0,0,1-10.7-2.562,67.752,67.752,0,0,0-6.855-1.937c-1.311-.33-2.668-.474-4-.733a1.2,1.2,0,0,1-.734-.56c1.369-.152,2.74-.294,4.108-.457a17.888,17.888,0,0,0,6.442-1.785,5.488,5.488,0,0,0,.98-.946c.405-.381.767-.956,1.245-1.084a23.885,23.885,0,0,1,4.03-.734,149.939,149.939,0,0,1,16.25-.745c1.792.034,3.588-.01,5.375.1,2.5.152,5.017.285,7.485.682a24.273,24.273,0,0,1,3.973,1.458c1.65.582,3.309,1.144,4.982,1.658a33.124,33.124,0,0,0,12.371.957,44.229,44.229,0,0,0,5.5-.935c1.448-.3,2.873-.711,4.3-1.095a1.26,1.26,0,0,0,.712-.379c.766-1.216,2.017-1.248,3.229-1.407a127.333,127.333,0,0,1,17.842-.646c3.355.033,6.71.2,10.063.35,1.506.066,3.013.183,4.512.353a5.643,5.643,0,0,1,3.279,1.5,5.936,5.936,0,0,0,3.743,1.66c1.417.107,2.832.24,4.251.314a9.278,9.278,0,0,0,6.152-1.957,11.425,11.425,0,0,1,5.671-1.958,107.033,107.033,0,0,1,15.734-.6c3.089.08,6.175.4,9.254.7,1.155.113,2.28.511,3.43.722a5.043,5.043,0,0,0,3.667-.768c.722-.45.777-.936.092-1.45a5.37,5.37,0,0,0-4.447-.872,44,44,0,0,1-9.069.946c-4.4-.015-8.8.032-13.192-.089-3.125-.086-6.246-.381-9.363-.643a1.827,1.827,0,0,1-1.272-.651c-1.416-2.341-3.665-2.864-6.127-2.916a45.387,45.387,0,0,0-5.018.092c-1.332.121-2.714.351-3.548,1.646-.015.023-.053.035-.058.058-.391,1.576-1.72,1.629-2.942,1.727-4.176.334-8.352.719-12.535.887-4.39.177-8.791.255-13.18.126a57.347,57.347,0,0,1-7.688-1.01A2.242,2.242,0,0,1,174.3,57c-.084-.4-.733-.774-1.2-.962a27.768,27.768,0,0,0-7.621-1.758,47.99,47.99,0,0,0-6.523-.342A40.872,40.872,0,0,0,147.5,55.725a3.338,3.338,0,0,0-2.518,2.139c-.118.386-.721.734-1.172.883a12.43,12.43,0,0,1-2.219.4,95.777,95.777,0,0,1-16.323.69c-3.825-.144-7.645-.435-11.463-.712-1.559-.113-3.106-.376-4.661-.542a1.7,1.7,0,0,1-1.594-1.139,3.054,3.054,0,0,0-2.357-1.718c-2.532-.744-5.1-1.359-7.9-2.088a3.387,3.387,0,0,1,.778-.455c2.374-.546,4.75-1.084,7.134-1.588a3.065,3.065,0,0,0,2.47-2.607,1.289,1.289,0,0,1,1.4-1.148c.14,0,.28-.012.42-.012q14.912-.066,29.824-.121c1.481,0,2.962.136,4.443.193a1.588,1.588,0,0,1,1.609,1.413c.261,1.7,1.446,2.125,2.858,2.438a60.058,60.058,0,0,0,17.255,1,39.777,39.777,0,0,0,7.251-1.467,3.069,3.069,0,0,0,1.57-1.576,3.1,3.1,0,0,1,2.941-1.8c1.677-.064,3.354-.177,5.032-.193,6.355-.059,12.711-.165,19.065-.092,3.01.034,6.018.412,9.023.677a1.963,1.963,0,0,1,1.994,1.4,2.886,2.886,0,0,0,2.436,2.027,22.579,22.579,0,0,0,9.568,0,3.211,3.211,0,0,0,2.664-2.542,1.527,1.527,0,0,1,1.655-1.237q4.074-.037,8.148-.111,6.506-.114,13.01-.25a5.861,5.861,0,0,0,.76-.114l0-.23c-.4-.036-.8-.1-1.2-.1-3.023-.036-6.046-.025-9.068-.1-2.374-.058-4.746-.212-7.118-.33-1.53-.076-3.06-.168-4.59-.248a1.566,1.566,0,0,1-1.639-1.336,3.261,3.261,0,0,0-3.238-2.836,52.01,52.01,0,0,0-5.518-.313,32.229,32.229,0,0,0-3.768.551c-1.155.153-1.587,1-1.933,1.926a2.8,2.8,0,0,1-2.821,2.058c-2.2.04-4.4.294-6.606.335-5.617.1-11.236.181-16.855.187-3.1,0-6.2-.162-9.305-.248-1.476-.041-1.971-.448-2.012-1.907-.059-2.1-.985-3.181-3.379-3.334-2.036-.13-4.074-.226-6.112-.344-.245-.014-.488-.067-.732-.1l-.018-.22c1.154-.133,2.317-.213,3.459-.411,1.747-.3,3.5-.615,5.206-1.084a1.915,1.915,0,0,0,1.066-1.288,17.635,17.635,0,0,0,.149-3.09c.017-1.427.01-2.855,0-4.282-.008-1.539-.349-1.843-1.865-1.893-1.565-.052-3.127-.177-4.69-.271l-.024-.315a12.755,12.755,0,0,1,1.445-.369c1.185-.165,2.378-.277,3.566-.418.828-.1,1.434-.447,1.5-1.377.027-.389.068-.779.068-1.169q.006-10.2,0-20.407a3.877,3.877,0,0,1,2.61-4.016,3.475,3.475,0,0,1,1.208-.2C188.5.267,198.611.29,208.724.249A3.978,3.978,0,0,1,212.479,4q-.015,8.607,0,17.215c0,1.2.018,2.407.035,3.61a2.084,2.084,0,0,0,2.078,2.255c2.171.152,4.348.293,6.523.3a39.3,39.3,0,0,0,4.337-.35c.912-.1,1.214-.511,1.439-1.842a6.585,6.585,0,0,0,.049-1.089c0-6.578.078-13.158-.042-19.734a4.269,4.269,0,0,1,4.13-4.143c8.431.112,16.865.086,25.3.024a7.827,7.827,0,0,1,7.413,4.469c2.392,4.324,4.859,8.606,7.286,12.91,1.438,2.551,2.891,5.1,4.273,7.676a2.311,2.311,0,0,0,2.1,1.369c3.27.046,6.543.083,9.812.009,1.389-.032,1.991-1.23,2.576-2.291,2.3-4.177,4.585-8.366,6.885-12.546C298.13,9.185,299.553,6.5,301.1,3.89a6.588,6.588,0,0,1,6.05-3.649q13.109.113,26.22.005a4.06,4.06,0,0,1,4.069,4.116c-.024,6.746-.01,13.493-.006,20.239a13.3,13.3,0,0,0,.063,1.508,1.376,1.376,0,0,0,1.258,1.332c1.661.181,3.328.3,4.992.444q1.8.157,3.6.324l.05.25a5.615,5.615,0,0,1-1.091.26c-1.566.058-3.136.04-4.7.119a18.926,18.926,0,0,0-3.227.386,1.4,1.4,0,0,0-.836,1.025c-.074,2.543-.048,5.09-.041,7.636a1.472,1.472,0,0,0,1.3,1.482,44.794,44.794,0,0,0,4.531.716c1.833.182,3.68.229,5.52.345a2.079,2.079,0,0,1,.726.166.54.54,0,0,1,.22.394c.007.072-.169.2-.283.238a2.811,2.811,0,0,1-.659.109c-1.422.076-2.854.06-4.263.233-2.061.254-4.1.666-6.158.96-.716.1-.856.624-.868,1.115-.051,2.152-.077,4.307-.016,6.458.036,1.3,1.2,1.4,2.113,1.634a34.463,34.463,0,0,0,10.092,1.115,1.494,1.494,0,0,1,.793.285c.421.271.326.568-.1.725a2.931,2.931,0,0,1-1.048.223,28.4,28.4,0,0,0-8.142.9,13.66,13.66,0,0,0-2.859,1.082,1.946,1.946,0,0,0-.888,1.337,31.852,31.852,0,0,0,.012,4.358c.082,1.278,1.119,1.857,2.134,2.288a16.108,16.108,0,0,0,10.3.708,5.731,5.731,0,0,0,1.067-.45,1.528,1.528,0,0,0,.913-1.582c-.024-19.421,0-38.843-.04-58.264A3.863,3.863,0,0,1,354.478.465a2.6,2.6,0,0,1,.962-.188c10.225-.01,20.451.011,30.676-.029a4.226,4.226,0,0,1,3.628,3.8q-.082,30.357-.029,60.715a10.885,10.885,0,0,0,3.182,8.276,12.832,12.832,0,0,0,7.382,3.425,35.721,35.721,0,0,0,5.338.322,15.121,15.121,0,0,0,9.962-3.512,8.918,8.918,0,0,0,3.083-5.512,36.155,36.155,0,0,0,.356-5.168c.023-19.427.049-38.854-.036-58.28A4.341,4.341,0,0,1,423.1.22c9.944.108,19.89.091,29.834.011a4.21,4.21,0,0,1,3.93,3.871c-.052,20.267,0,40.533-.068,60.8a47.864,47.864,0,0,1-.819,8.486,36.416,36.416,0,0,1-5.433,13.78,34.473,34.473,0,0,1-11.814,10.752,49.254,49.254,0,0,1-9.947,4.333,59.636,59.636,0,0,1-10.941,2.452c-2.883.33-5.773.634-8.669.807a71.332,71.332,0,0,1-8.046.145,78.361,78.361,0,0,1-12.237-1.254c-1.96-.418-3.951-.712-5.885-1.224a52.8,52.8,0,0,1-11.36-4.381,50.426,50.426,0,0,1-7.828-5.182c-.65-.521-1.8-.474-2.738-.57-2-.2-4-.345-6.01-.486a28.47,28.47,0,0,0-4.087-.189c-2.8.21-5.59.552-8.375.914-1.439.187-2.851.566-4.285.791-.671.105-.839.43-.91,1.056a19.425,19.425,0,0,1-.649,3.758,2.78,2.78,0,0,1-2.6,1.874c-2.342.171-4.688.372-7.034.385-5.625.031-11.25-.026-16.875-.082-1.142-.012-2.284-.169-3.424-.278a3.222,3.222,0,0,1-2.912-2.536,20.193,20.193,0,0,1-.333-3.04,1.442,1.442,0,0,0-1.079-1.474,19.84,19.84,0,0,0-5.8-1.129C295.8,92.567,294.9,92.367,293.753,92.205Zm66.559-1.943a12.032,12.032,0,0,0-.68-1.118,30.163,30.163,0,0,1-3.862-6.292c-.357-.778-.482-1.818-1.552-2.08a9.83,9.83,0,0,0-2.116-.41c-2.339-.043-4.691-.133-7.017.052a29.931,29.931,0,0,0-5.941,1.074c-1.436.417-1.764.518-1.715,2.274.034,1.2.056,2.4.051,3.605,0,1.415.64,1.719,1.82,2.083.211.066.446.053.657.119a42.607,42.607,0,0,0,10.366,1.645,20.934,20.934,0,0,0,3.332-.186C355.786,90.809,357.912,90.541,360.312,90.262Zm-22.839-17.45h.008c0,.642.014,1.285,0,1.927a1.653,1.653,0,0,0,1.348,1.752,27.172,27.172,0,0,0,2.716.735,52.818,52.818,0,0,0,5.721.9,22.293,22.293,0,0,0,4.231-.3c1.632-.2,2.088-.823,1.832-2.125-.389-1.973-.74-3.955-1.03-5.945a2.123,2.123,0,0,0-1.652-2.082,10.692,10.692,0,0,0-2.375-.355c-1.469.02-2.939.161-4.405.289a15.4,15.4,0,0,0-5.266,1.43,1.725,1.725,0,0,0-1.129,1.681C337.487,71.416,337.473,72.114,337.473,72.812ZM219.948,39.939c1.589-.171,3.248-.335,4.9-.533a2.321,2.321,0,0,0,2.071-1.938c.035-1.959.065-3.921-.024-5.876-.038-.839-.278-1.778-1.278-2.035a12.251,12.251,0,0,0-2.566-.357c-1.707-.065-3.418-.094-5.124-.042-1.363.042-2.724.206-4.081.356a1.373,1.373,0,0,0-1.31,1.392c-.046,2.181-.034,4.364.017,6.545a1.972,1.972,0,0,0,1.8,1.941C216.186,39.592,218.018,39.752,219.948,39.939Zm71.335,36.737a7.882,7.882,0,0,0,1.52.436,23.116,23.116,0,0,0,10.064-1.074,1.014,1.014,0,0,0,.743-1.125,33.627,33.627,0,0,1,0-3.689c.056-.919-.393-1.252-1.174-1.492a12.27,12.27,0,0,0-6.441-.28,2.2,2.2,0,0,0-1.345.8C293.483,72.332,292.426,74.47,291.283,76.676Zm-4.562-47.2c-.38-.211-.729-.567-1.085-.576-2.154-.052-4.313-.1-6.463,0-1.379.066-1.512.425-.984,1.694.1.25.232.492.355.735.92,1.8,1.8,3.629,2.78,5.394.628,1.124,1.154,1.046,1.772-.111.908-1.7,1.844-3.381,2.739-5.086C286.15,30.929,286.377,30.282,286.721,29.477ZM303.592,59.9h-.01a7.07,7.07,0,0,0-.026-1.5,1.408,1.408,0,0,0-.628-.951,2.015,2.015,0,0,0-1.223.214,1.38,1.38,0,0,0-.577.578c-.587.974-1.168,1.954-1.7,2.957-.318.593-.009.993.588,1.077a8.077,8.077,0,0,0,1.832.048c1.454-.13,1.749-.482,1.749-1.921Z"/><path class="a" d="M576.084,31.285h-1.1c-6.891,0-13.781-.028-20.671.016a4.291,4.291,0,0,1-4.364-4.29q.141-11.417,0-22.837A4.289,4.289,0,0,1,553.889.232q40.963.079,81.926.036a3.674,3.674,0,0,1,3.839,3.839c0,7.753-.047,15.506.032,23.257a4,4,0,0,1-4.033,3.918q-10.419.014-20.839,0c-1.529,0-1.249-.006-1.249,1.269q-.008,34.425.01,68.848a3.794,3.794,0,0,1-2.271,3.74,5.1,5.1,0,0,1-2.113.37c-9.579.023-19.158-.005-28.737.028a4.242,4.242,0,0,1-4.395-4.524q.063-34.255.025-68.512Z"/><path class="a" d="M474.788,52.869q0-24.269,0-48.538A3.835,3.835,0,0,1,478.827.268h30.927a3.839,3.839,0,0,1,3.894,3.6c.033.417.025.838.025,1.258q0,34.766,0,69.532c0,1.38,0,1.381,1.375,1.381,11.485,0,22.971.016,34.456-.016a3.8,3.8,0,0,1,3.76,2.245,5.277,5.277,0,0,1,.391,2.188c.028,6.858.013,13.716.018,20.574,0,1.874-.606,3.424-2.437,4.167a6.463,6.463,0,0,1-2.3.321c-2.745.036-5.49.015-8.236.015q-30.548,0-61.1-.005c-1.28,0-2.545-.021-3.55-1.072a4.074,4.074,0,0,1-1.275-2.963Q474.8,77.181,474.788,52.869Z"/><path class="a" d="M63.565,31.287c0,2.124-.038,4.133.039,6.137.012.321.484.778.837.9a8.058,8.058,0,0,0,2.127.372q6.774.4,13.551.747c2.819.143,5.64.237,8.46.353.112,0,.246-.037.331.011a3.384,3.384,0,0,1,.454.354c-.152.086-.3.241-.457.246-1.091.039-2.185.013-3.275.071-4.69.245-9.385.445-14.068.8a50.63,50.63,0,0,0-5.815,1,2.407,2.407,0,0,0-2.2,2.45c-.19,1.5-.741,1.94-2.55,1.969-3.583.058-7.167.088-10.75.152-2.625.047-5.25.208-7.874.178-4.638-.053-9.276-.207-13.913-.339a2.655,2.655,0,0,1-1.448-.276,2.671,2.671,0,0,1-.82-1.4c-.237-.92-.35-1.9-1.319-2.347a7.692,7.692,0,0,0-2.268-.712c-3.768-.434-7.538-.887-11.32-1.153-3.512-.248-7.04-.262-10.56-.4C.5,40.4.292,40.2.077,40.091a2.087,2.087,0,0,1,.669-.284c2.545-.083,5.093-.106,7.637-.212,3.8-.159,7.592-.335,11.383-.58,1.628-.105,3.245-.387,4.862-.618,1.034-.148,1.466-.571,1.5-1.548.062-1.649.047-3.3.086-4.951.011-.484-.191-.629-.65-.618-.98.023-1.961.007-2.941.007q-9.2,0-18.4,0A4.138,4.138,0,0,1,.182,28.77a2.553,2.553,0,0,1-.173-1.051Q0,15.713.007,3.706A3.724,3.724,0,0,1,3.505.272Q44.761.266,86.019.253a4.022,4.022,0,0,1,3.667,3.612c-.005,7.892.009,15.784-.012,23.677a4.028,4.028,0,0,1-4.125,3.743q-10.419.007-20.839,0Z"/><path class="a" d="M98.222,28.1c1.793-.112,3.587-.206,5.377-.342.888-.068,1.775-.182,2.653-.334.719-.125,1.281-1.023,1.377-2.092.023-.25.008-.5.008-.755,0-6.743.019-13.487-.011-20.23A3.866,3.866,0,0,1,109.875.5a5.437,5.437,0,0,1,2.25-.471q14.45-.045,28.9,0c1.864.007,3.5.636,4.22,2.58a4.818,4.818,0,0,1,.229,1.631c.015,6.911,0,13.823.024,20.734a3.593,3.593,0,0,0,.354,1.6,1.723,1.723,0,0,0,1.033.847c1.2.209,2.436.255,3.656.381,1.127.116,2.253.254,3.6.408-.3.163-.395.261-.5.267-2.062.126-4.123.265-6.186.351-1.672.07-2.122.8-2.336,2.229-.094.625-.181,1.251-.3,1.872-.171.927-.855,1.159-1.669,1.168-2.212.023-4.424.046-6.635.051q-13.484.029-26.966.044c-1.485,0-1.708-.241-1.859-1.734a8.759,8.759,0,0,0-.441-2.207c-.448-1.184-1.623-1.277-2.643-1.381-1.993-.2-4-.265-6-.39a3,3,0,0,1-.383-.073Z"/><path class="a" d="M103.48,91.644a3.133,3.133,0,0,1,.717-.318c2.914-.489,5.831-.953,8.746-1.435,1.593-.264,3.189-.517,4.773-.83,2-.4,3.982-.91,5.992-1.258,2.8-.484,5.611-.916,8.431-1.267,1.8-.224,3.621-.322,5.436-.37,3.636-.1,7.274-.162,10.911-.161,3.834,0,7.667.129,11.5.134,3.076,0,6.153-.167,9.227-.13,5.82.07,11.644.116,17.455.411a50.333,50.333,0,0,1,8.331,1.3c3.587.8,7.1,1.928,10.682,2.748,2.056.471,4.186.624,6.286.894a15.884,15.884,0,0,0,2.569.207A35.861,35.861,0,0,0,225,89.6a56.592,56.592,0,0,1,15.258-3.5,58.807,58.807,0,0,1,12.2.683,68.234,68.234,0,0,1,7.526,1.935c2.725.738,5.437,1.526,8.168,2.242.8.21,1.649.23,2.471.367.447.074.883.209,1.323.316l.012.238a3.428,3.428,0,0,1-.858.369c-1.213.16-2.448.193-3.647.418-1.8.338-3.588.785-5.376,1.209-1.754.416-3.5.877-5.252,1.292A42.876,42.876,0,0,1,246.3,96.221c-2.7-.037-5.406.061-8.1-.109a53.487,53.487,0,0,1-6.172-.91c-2.461-.449-4.908-.976-7.355-1.5-1.98-.425-3.932-1.05-5.932-1.3a53.9,53.9,0,0,0-5.955-.162c-.783-.011-1.567.028-2.35.053a95.776,95.776,0,0,0-12.05,1.335q-3.1.5-6.227.854c-3.348.38-6.7.72-10.055,1.039q-2.5.237-5,.337c-3.542.143-7.085.253-10.629.357-2.818.083-5.639.213-8.458.185-3.969-.04-7.937-.19-11.9-.327-1.922-.067-3.842-.206-5.763-.321-1.531-.092-3.067-.146-4.592-.305-3.743-.392-7.482-.823-11.22-1.262-2.249-.264-4.493-.566-6.737-.864-2.375-.315-4.741-.7-7.122-.953-2.106-.221-4.228-.293-6.344-.43-.248-.016-.5-.025-.746-.037Z"/><path class="a" d="M549.029,141.886a8.74,8.74,0,0,1,4.587,3.645A8.2,8.2,0,0,1,554.9,149.2a26.8,26.8,0,0,1,.027,3.13,9.365,9.365,0,0,1-5.377,8,13.691,13.691,0,0,1-6.34,1.612c-4.81.088-9.62.116-14.429.19-.568.009-.755-.227-.738-.738.006-.195,0-.391,0-.587q0-17.875,0-35.751c0-1.248.01-1.258,1.273-1.258,3.667,0,7.335-.026,11,.012,1.5.016,3,.147,4.5.268,3.58.287,7.321,3.168,8.276,6.531A9.692,9.692,0,0,1,549.029,141.886ZM535.1,150.458c0,1.567.008,3.135,0,4.7,0,.46.088.729.643.72,2.659-.042,5.32-.017,7.979-.092a4.04,4.04,0,0,0,3.06-1.748,6.033,6.033,0,0,0,1.08-4.067,4.94,4.94,0,0,0-4.563-4.788c-2.491-.039-4.983-.029-7.474-.069-.552-.009-.737.183-.729.725C535.119,147.38,535.1,148.919,535.1,150.458Zm0-15.85c0,1.286.027,2.572-.011,3.856-.02.677.2.955.906.942,1.873-.034,3.752.071,5.618-.047a6,6,0,0,0,2.721-.78,4.9,4.9,0,0,0,1.556-6.33,3.553,3.553,0,0,0-2.907-2.154c-2.361-.183-4.737-.159-7.107-.231-.577-.018-.793.235-.783.805C535.12,131.981,535.1,133.295,535.1,134.608Z"/><path class="a" d="M459.138,162.115c.337-1.022.611-1.9.915-2.768q1.013-2.9,2.049-5.787c1.021-2.852,2.06-5.7,3.07-8.553.99-2.8,1.944-5.618,2.929-8.422.993-2.827,2-5.648,3.007-8.472.408-1.15.87-2.286,1.2-3.46a.984.984,0,0,1,1.041-.854c1.9-.014,3.81-.021,5.715.006a1.039,1.039,0,0,1,1.126.83c.732,2.288,1.593,4.535,2.4,6.8,1.009,2.824,2.026,5.645,3.019,8.475.655,1.867,1.253,3.753,1.915,5.618.766,2.158,1.591,4.3,2.358,6.453.874,2.46,1.708,4.933,2.566,7.4.2.576.437,1.14.643,1.714.279.775.112,1.021-.7,1.023-2.043,0-4.086,0-6.221,0-.5-1.517-1-3.018-1.5-4.517-.559-1.659-1.119-3.319-1.7-4.97a.614.614,0,0,0-.434-.351c-4.285,0-8.569.013-12.854.029a.066.066,0,0,0-.045.026c-.83,2.45-1.655,4.877-2.47,7.307a17.519,17.519,0,0,1-.541,1.733c-.136.3-.488.7-.752.709C463.71,162.14,461.555,162.115,459.138,162.115Zm17.121-30.834c-1.581,4.939-3.212,10.036-4.872,15.221h9.681Z"/><path class="a" d="M14.843,53.711c.213-.055.424-.122.639-.164,1.247-.245,2.515-.409,3.736-.744,1.7-.466,3.385-1.011,5.043-1.614a2.716,2.716,0,0,0,1.5-1.966,1.721,1.721,0,0,1,1.744-1.371c2.96-.14,5.915-.411,8.876-.482,2.431-.059,4.867.146,7.3.14,3.19-.007,6.382-.2,9.57-.14,2.959.05,5.913.354,8.872.467a1.654,1.654,0,0,1,1.722,1.342A3.448,3.448,0,0,0,66.481,51.7c1.955.58,3.957,1,5.941,1.483.562.136,1.138.218,1.7.366.141.038.239.239.357.365-.117.093-.222.246-.352.271-2,.379-4.011.716-6.007,1.119a15.357,15.357,0,0,0-2.792.792,2.3,2.3,0,0,0-1.239,1.107c-.454,1.287-1.464,1.495-2.563,1.584-2.034.166-4.07.326-6.108.407-3.856.153-7.715.353-11.572.339-4.053-.013-8.106-.221-12.156-.412-1.56-.074-3.112-.322-4.664-.518a1.454,1.454,0,0,1-1.285-1.029c-.454-1.271-1.595-1.656-2.754-1.911-2.583-.567-5.178-1.079-7.768-1.613Z"/><path class="a" d="M97.265,40.371a5.065,5.065,0,0,1,.742-.2c2.268-.269,4.539-.511,6.806-.789a2.925,2.925,0,0,0,2.837-2.815c.266-1.494.5-1.713,2.033-1.684,4.214.08,8.427.276,12.64.259,6.734-.027,13.467-.2,20.2-.282a8.457,8.457,0,0,1,1.781.271c.619.129.766.593.8,1.168a10.7,10.7,0,0,0,.263,1.281,2.694,2.694,0,0,0,2.506,2.15c2.636.437,5.292.748,7.94,1.114.159.021.314.066.632.136a2.328,2.328,0,0,1-.541.242c-1.447.12-2.909.138-4.34.358a39.374,39.374,0,0,0-4.84,1.054,2.505,2.505,0,0,0-1.614,2.309c-.167,1.091-.39,1.389-1.528,1.556a24.745,24.745,0,0,1-3.069.306c-4.723.1-9.448.239-14.172.216-5.645-.028-11.288-.2-16.932-.322a1.535,1.535,0,0,1-1.712-1.321c-.736-3.166-1.945-3.235-4.511-3.8-1.793-.393-3.64-.534-5.461-.8a2.1,2.1,0,0,1-.441-.168Z"/><path class="a" d="M73.386,66.337c-.257.268-.383.524-.554.559-1.326.27-2.69.394-3.985.764a37.977,37.977,0,0,0-5.23,1.832,26.372,26.372,0,0,1-4.966,1.7c-5.58,1.3-11.25,1.276-16.916,1.186a64.489,64.489,0,0,1-8.011-.63,25.229,25.229,0,0,1-9-2.89,15.352,15.352,0,0,0-4.035-1.219c-1.342-.315-2.718-.485-4.073-.751-.2-.04-.374-.257-.737-.521,1.39-.315,2.588-.52,3.745-.863,1.816-.538,3.609-1.153,5.4-1.775a1.776,1.776,0,0,0,.751-.625,4.99,4.99,0,0,1,3.855-1.871c2.806-.236,5.609-.562,8.421-.675,4.072-.165,8.155-.328,12.225-.2,3.5.106,7,.557,10.481.976a4.1,4.1,0,0,1,2.9,1.6A6.065,6.065,0,0,0,67.232,64.8C69.219,65.311,71.214,65.794,73.386,66.337Z"/><path class="a" d="M74.743,79.431c-1.047.2-1.833.335-2.61.5-2.243.487-4.5.905-6.717,1.508-1.885.514-3.694,1.3-5.566,1.867-1.3.393-2.637.658-3.969.923-5.786,1.148-11.642.711-17.465.595a31.875,31.875,0,0,1-9.806-1.861,55.235,55.235,0,0,0-9.195-2.678c-1.482-.241-2.952-.554-4.689-.884a6.957,6.957,0,0,1,1.083-.456c1.329-.28,2.7-.424,3.993-.8,2.349-.689,4.673-1.472,6.981-2.291a41.43,41.43,0,0,1,6.378-1.942c5.248-.961,10.528-.608,15.8-.624a36.9,36.9,0,0,1,6.429.437,54.494,54.494,0,0,1,6.583,1.787c2.419.743,4.793,1.638,7.217,2.363,1.53.458,3.119.717,4.677,1.087A4.832,4.832,0,0,1,74.743,79.431Z"/><path class="a" d="M15.139,91.706c.725-.135,1.453-.25,2.173-.407,1.952-.428,3.924-.79,5.846-1.33,3.552-1,7.028-2.315,10.623-3.1a55.3,55.3,0,0,1,8.736-.92,46.482,46.482,0,0,1,7.051.083,62.345,62.345,0,0,1,8.415,1.348c2.959.707,5.815,1.832,8.752,2.648,1.95.542,3.962.863,5.946,1.285a6.2,6.2,0,0,1,1.614.512c-.618.143-1.234.3-1.854.429-2.9.629-5.813,1.236-8.713,1.884-1.809.4-3.6.889-5.409,1.291a24.946,24.946,0,0,1-2.628.4c-6.249.7-12.518.395-18.778.281a36.183,36.183,0,0,1-6.065-.9c-2.261-.432-4.5-.975-6.747-1.488-1.894-.433-3.776-.923-5.675-1.33-1.077-.23-2.18-.344-3.271-.51Z"/><path class="a" d="M403.829,142.955q0-8.982,0-17.964c0-1.194,0-1.2,1.236-1.2,1.6,0,3.193.03,4.788-.013.806-.022,1.054.259,1.052,1.072-.026,9.989-.006,19.979-.036,29.968,0,.843.2,1.083,1.061,1.075,4.7-.044,9.409-.022,14.113-.021,1.363,0,1.409.049,1.409,1.4,0,1.315-.023,2.63.01,3.945.016.639-.193.905-.862.9q-11.006-.021-22.01.006c-.784,0-.765-.424-.764-.96Q403.832,152.063,403.829,142.955Z"/><path class="a" d="M124.941,104.232c.553-.079,1.1-.195,1.659-.232,2.51-.168,5.022-.3,7.531-.47,3.063-.211,6.123-.459,9.186-.674,1.861-.13,3.724-.292,5.588-.328,6.537-.125,13.077-.317,19.613-.25,3.386.035,6.767.562,10.151.866,1.361.122,2.721.267,4.084.357,2.732.18,5.466.337,8.2.49,1.172.066,2.346.084,3.518.152a7.32,7.32,0,0,1,1.032.21l.04.253a4.7,4.7,0,0,1-1.172.362c-2.46.1-4.922.134-7.383.214-3.294.108-6.589.241-9.883.354-2.4.082-4.8.193-7.206.212q-9.407.07-18.812.064c-3.359,0-6.723.023-10.076-.142-4.6-.227-9.2-.623-13.794-.946l-2.241-.159Z"/><path class="a" d="M20.534,104.363a3.9,3.9,0,0,1,.733-.221c2.112-.207,4.233-.342,6.337-.608,1.924-.242,3.822-.69,5.746-.92a54.089,54.089,0,0,1,5.837-.426c4.507-.044,9.019-.076,13.521.083,2.231.079,4.443.614,6.669.9,2.375.3,4.756.55,7.134.826.78.09,1.56.193,2.339.291l.01.319a16.662,16.662,0,0,1-1.9.405c-2.055.2-4.112.453-6.173.5q-9.394.224-18.793.3c-3.946.03-7.9,0-11.838-.138-2.62-.1-5.232-.421-7.843-.685a11.933,11.933,0,0,1-1.755-.443Z"/><path class="a" d="M267.233,104.669a26.447,26.447,0,0,1-3.463.672c-3.4.221-6.811.337-10.217.475-2.286.092-4.573.237-6.858.211-5.76-.067-11.52-.167-17.276-.361-2.141-.072-4.273-.44-6.408-.682a1.525,1.525,0,0,1-.557-.171,2.234,2.234,0,0,1-.4-.36c.167-.106.327-.288.5-.306,2.055-.21,4.118-.354,6.169-.6,2.177-.258,4.343-.605,6.514-.913.083-.012.166-.027.25-.034a88.954,88.954,0,0,1,14.568-.3c2.84.208,5.647.832,8.48,1.177,2.633.32,5.282.518,7.923.771.239.023.477.05.716.076Z"/><path class="a" d="M340.622,104.639a14.3,14.3,0,0,1-1.679.357c-1.776.172-3.555.337-5.337.431-3.039.16-6.08.356-9.121.372-5.624.028-11.249-.006-16.871-.135-2.111-.049-4.215-.423-6.319-.679-.213-.026-.4-.265-.6-.405l.063-.211c1.235-.143,2.474-.25,3.7-.437,1.973-.3,3.937-.661,5.907-.981a21.319,21.319,0,0,1,2.639-.353c3.68-.13,7.37-.394,11.041-.25,2.891.114,5.756.788,8.64,1.149,2.381.3,4.774.5,7.162.748.261.027.52.067.781.1Z"/></svg>